<svg width="70" height="70" viewBox="0 0 70 70" fill="none" xmlns="http://www.w3.org/2000/svg">
<path d="M45.8965 2.59764C26.2773 5.15428 26.2227 5.15428 25.8672 5.52342L25.498 5.87889L25.457 28.7246L25.4297 51.5566L24.377 50.6133C21.9023 48.3437 18.7988 47.1543 15.3809 47.1543C12.9609 47.1406 11.1152 47.5508 9.22852 48.5078C6.05664 50.0937 4.06055 52.3496 2.98047 55.5898C2.70703 56.4101 2.66602 56.793 2.66602 58.584C2.66602 60.5254 2.69336 60.7031 3.08984 61.8242C4.92188 66.9648 10.1992 70.2871 15.9824 69.959C19.5371 69.7539 22.5176 68.4141 24.8418 65.9941C26.5508 64.2031 27.5625 62.207 27.8906 59.9375C27.9727 59.3496 28.0273 51.6387 28.0273 39.7988C28.0273 29.2305 28.0547 20.5762 28.082 20.5488C28.1094 20.5215 36.1758 19.4551 46.0195 18.1836C55.8633 16.9121 64.1484 15.832 64.4355 15.791L64.9414 15.7226V27.2754C64.9414 33.6328 64.9004 38.8281 64.8594 38.8281C64.8184 38.8281 64.4355 38.4863 64.0117 38.0625C59.8145 33.8652 52.4727 33.1816 47.3457 36.5312C42.1641 39.9082 40.5371 46.1016 43.5039 51.1738C44.1602 52.2949 45.6777 53.9492 46.8262 54.7558C52.1035 58.5293 59.623 57.9551 64.1348 53.4707C65.666 51.9531 66.6504 50.2031 67.1426 48.1933C67.3887 47.1406 67.4023 46.334 67.4023 23.8984V0.710922L66.9785 0.355453C66.6777 0.0956879 66.418 -1.52588e-05 66.0625 0.0136566C65.7891 0.0273285 56.7109 1.18944 45.8965 2.59764ZM64.9141 7.95702L64.873 13.1797L46.6895 15.5312C36.6953 16.8301 28.3965 17.8965 28.2734 17.9101C28.041 17.9101 28.0273 17.5683 28.0273 12.7148C28.0273 9.85741 28.041 7.51952 28.0684 7.50585C28.1914 7.4785 64.3945 2.7617 64.6406 2.74803L64.9414 2.73436L64.9141 7.95702ZM56.4648 37.0508C58.1191 37.3105 60.1426 38.1308 61.25 38.9922C62.043 39.6074 63.2598 40.9062 63.6836 41.6035C65.1465 44.0234 65.2695 46.9492 64.0254 49.4238C62.6719 52.0762 59.8418 54.0312 56.5605 54.5508C55.1797 54.7832 52.8555 54.6601 51.6387 54.291C48.3574 53.3203 45.9512 51.1601 44.9531 48.2617C44.6934 47.5234 44.6387 47.0996 44.6523 45.7324C44.6523 44.2148 44.6934 44.0098 45.0898 42.998C46.7441 38.8281 51.6113 36.2851 56.4648 37.0508ZM18.0469 49.9844C24.2402 51.5703 27.207 57.6543 24.2676 62.6992C22.9688 64.9277 20.043 66.8144 17.1855 67.2656C13.6035 67.8398 9.95312 66.7324 7.58789 64.3262C5.98828 62.6992 5.1543 60.7715 5.14062 58.6523C5.12695 56.2734 5.87891 54.5371 7.64258 52.7734C8.28516 52.1308 9.17383 51.4062 9.59766 51.1465C10.5 50.6269 12.3047 49.9707 13.3984 49.7793C14.4238 49.5879 16.9668 49.7109 18.0469 49.9844Z" fill="#3D1D9A"/>
</svg>
