<svg width="70" height="70" viewBox="0 0 70 70" fill="none" xmlns="http://www.w3.org/2000/svg">
<path d="M23.2422 1.43555C21.7383 1.77734 20.1797 2.63867 19.0723 3.74609C16.4199 6.41211 15.8047 10.3086 17.5 13.6992L18.0332 14.7656H9.00977H0V23.3789V31.9922H3.07617H6.15234V50.3809V68.7695H35.6152H65.0781V50.3809V31.9922H67.5391H70V23.3789V14.7656H60.6484H51.2832L51.8164 13.7266C54.0039 9.44727 52.3223 4.2793 48.0566 2.17383C45.5137 0.916016 42.9297 0.929688 40.332 2.20117C39.293 2.7207 38.9375 3.00781 36.9688 4.94922C35.7656 6.13867 34.7266 7.10938 34.6582 7.10938C34.5898 7.10938 33.5508 6.13867 32.3477 4.94922C31.1309 3.75977 29.8594 2.625 29.5176 2.41992C27.7676 1.42188 25.1426 1.01172 23.2422 1.43555ZM26.5645 3.89648C28.0273 4.2793 28.6562 4.7168 30.8574 6.87695L32.9492 8.92773L30.3789 11.5391C28.957 12.9746 27.7266 14.2871 27.6309 14.4512C27.4668 14.7656 27.4395 14.7656 24.418 14.7656H21.3555L20.7402 14.082C19.2227 12.4004 18.6758 10.3359 19.209 8.29883C19.4824 7.21875 19.8789 6.50781 20.6035 5.72852C22.1758 4.0332 24.4453 3.34961 26.5645 3.89648ZM45.4043 3.82812C48.207 4.34766 50.3125 6.93164 50.3125 9.83008C50.3125 11.457 49.7383 12.8516 48.5625 14.1094L47.9473 14.7656H39.252H30.5566L35.5469 9.80273C39.1016 6.27539 40.7422 4.74414 41.2344 4.4707C42.5879 3.75977 43.9277 3.55469 45.4043 3.82812ZM34.3164 23.3789V29.5312H18.3887H2.46094V23.3789V17.2266H18.3887H34.3164V23.3789ZM67.5391 23.3789V29.5312L52.1992 29.5039L36.8457 29.4629L36.8047 23.3379L36.7773 17.2266H52.1582H67.5391V23.3789ZM34.3164 39.3066V46.6211H21.4648H8.61328V39.3066V31.9922H21.4648H34.3164V39.3066ZM62.6172 39.3066V46.6211H49.6973H36.7773V39.3066V31.9922H49.6973H62.6172V39.3066ZM34.3164 57.6953V66.3086H21.4648H8.61328V57.6953V49.082H21.4648H34.3164V57.6953ZM62.6172 57.6953V66.3086H49.6973H36.7773V57.791C36.7773 53.1016 36.8184 49.2188 36.873 49.1777C36.9141 49.123 42.7383 49.082 49.793 49.082H62.6172V57.6953Z" fill="#3D1D9A"/>
</svg>
