<svg width="70" height="70" viewBox="0 0 70 70" fill="none" xmlns="http://www.w3.org/2000/svg">
<path d="M16.5429 2.66602C11.1015 3.459 6.38471 6.69923 3.3769 11.7168C0.984322 15.6816 -0.273491 20.9043 0.109322 25.3066C0.697213 32.0742 3.77338 38.582 8.83198 43.8457C9.58393 44.625 15.7226 50.2578 22.4902 56.3965C34.6445 67.4024 34.7812 67.5254 35.0683 67.2793C35.2187 67.1426 41.0292 61.9609 47.9882 55.7539C59.9101 45.1172 61.8378 43.3125 63.5331 41.1524C67.9355 35.5059 70.5058 27.6992 69.8769 21.8887C69.5214 18.6484 68.8378 16.1328 67.621 13.5899C65.3378 8.83204 61.6328 5.29103 57.2031 3.62306C52.5683 1.87305 47.1816 2.17384 42.7382 4.40236C39.8535 5.85157 37.2148 8.14845 35.5195 10.6777L34.8085 11.7441L34.1386 10.7188C31.7324 7.09571 28.082 4.36134 24.1308 3.2129C21.6289 2.48829 19.0175 2.29688 16.5429 2.66602ZM22.6269 5.57814C25.7851 6.38478 28.916 8.38087 30.8847 10.8555C32.0742 12.332 33.0039 13.959 33.9062 16.1055C34.3847 17.2402 34.7949 18.1563 34.8085 18.1426C34.8222 18.1289 35.205 17.2402 35.6699 16.1738C36.1347 15.0938 36.791 13.7539 37.1328 13.166C41.2206 6.23438 49.7519 3.32227 56.8749 6.41212C62.2753 8.75001 66.0214 14.1641 67.0605 21.082C68.0449 27.6445 65.1054 35.7109 59.5546 41.6582C58.6386 42.6289 35.164 63.7109 34.8632 63.8203C34.6855 63.8887 11.3886 42.6973 10.2128 41.3984C6.26167 37.0508 3.75971 31.9238 2.9394 26.4551C2.37885 22.668 3.11713 18.1016 4.88081 14.5606C7.30073 9.73438 11.2519 6.50782 16.0234 5.46876C17.705 5.11329 20.9589 5.16798 22.6269 5.57814Z" fill="#3D1D9A"/>
<path d="M18.8672 10.9375C12.9199 12.209 8.70895 16.9531 8.12106 23.0508C8.01169 24.2676 8.20309 24.9375 8.74997 25.2246C9.33786 25.5254 9.78903 25.4707 10.2675 25.0469C10.664 24.6914 10.705 24.5821 10.8144 23.4199C11.0195 21.2188 11.5664 19.6602 12.7285 17.9785C13.9453 16.2149 15.6816 14.8477 17.6914 14.0684C18.6347 13.7129 19.4277 13.5489 21.5605 13.3164C22.7773 13.1797 23.2695 11.9082 22.4355 11.0606C22.0664 10.6914 21.957 10.6641 21.0273 10.6778C20.4804 10.6778 19.5097 10.8008 18.8672 10.9375Z" fill="#3D1D9A"/>
</svg>
