<svg width="85" height="85" viewBox="0 0 85 85" fill="none" xmlns="http://www.w3.org/2000/svg">
<path d="M41.7031 2.70602C41.3379 3.08786 41.3379 3.13766 41.3379 10.1767C41.3379 17.0498 41.3545 17.2822 41.6699 17.5976C41.8525 17.7802 42.2178 17.9297 42.5 17.9297C42.7822 17.9297 43.1475 17.7802 43.3301 17.5976C43.6455 17.2822 43.6621 17.0498 43.6621 10.1601V3.03806L43.2803 2.68942C42.7822 2.22458 42.1514 2.22458 41.7031 2.70602Z" fill="#3D1D9A"/>
<path d="M30.1152 12.0859C30.0156 12.1523 29.8329 12.3847 29.7333 12.6006C29.5507 12.9326 29.6503 13.4804 30.3974 16.5019C30.8622 18.4277 31.3437 20.1045 31.4433 20.2373C31.7255 20.6025 32.3398 20.7519 32.7714 20.5693C33.6015 20.1875 33.5849 19.872 32.6884 16.1533C32.2236 14.2441 31.7255 12.5342 31.6093 12.3183C31.3603 11.9531 30.5136 11.8037 30.1152 12.0859Z" fill="#3D1D9A"/>
<path d="M53.3906 12.3183C53.2578 12.5342 52.7764 14.2607 52.3115 16.1533C51.4151 19.872 51.4151 20.1875 52.2285 20.5693C52.6602 20.7519 53.2744 20.6025 53.5567 20.2373C53.6563 20.1045 54.1377 18.4277 54.6026 16.5019C55.3496 13.4804 55.4492 12.9326 55.2666 12.6006C55.001 12.0693 54.8018 11.9531 54.1709 11.9531C53.7891 11.9531 53.5567 12.0693 53.3906 12.3183Z" fill="#3D1D9A"/>
<path d="M19.6729 19.6728C19.4404 19.8886 19.2578 20.2373 19.2578 20.4365C19.2578 20.7021 20.0879 21.6484 21.9473 23.5244C24.2881 25.8818 24.7031 26.2304 25.168 26.2304C25.7988 26.2304 26.2305 25.7822 26.2305 25.1347C26.2305 24.7197 25.7988 24.2216 23.5244 21.9472C21.6484 20.0879 20.7021 19.2578 20.4365 19.2578C20.2373 19.2578 19.8887 19.4404 19.6729 19.6728Z" fill="#3D1D9A"/>
<path d="M61.459 21.9638C59.1514 24.2715 58.7695 24.7363 58.7695 25.1679C58.7695 25.7988 59.2178 26.2304 59.8652 26.2304C60.2637 26.2304 60.7949 25.7822 63.0361 23.541C65.9248 20.6523 66.1074 20.3701 65.4102 19.623C64.6963 18.8593 64.3643 19.0586 61.459 21.9638Z" fill="#3D1D9A"/>
<path d="M39.7606 21.4326C36.2079 21.8974 32.373 23.4912 29.4511 25.7324C26.3798 28.1064 23.6405 31.9746 22.412 35.6601C19.0917 45.6709 23.3749 56.3623 32.705 61.3261C35.7431 62.9365 38.7812 63.667 42.4999 63.6504C46.9657 63.6504 50.6347 62.5547 54.2206 60.1806C58.786 57.1259 62.0399 52.3779 63.2684 46.8994C63.7499 44.708 63.7997 40.4746 63.3515 38.4326C62.372 33.9336 60.3798 30.331 57.2089 27.2597C52.5604 22.7607 46.1522 20.6191 39.7606 21.4326ZM46.9989 24.122C54.0878 25.9482 59.1679 31.1113 60.9608 38.3164C61.4921 40.3916 61.4921 44.6084 60.9608 46.6836C58.8524 55.1338 51.9462 60.9443 43.496 61.3759C33.8007 61.874 25.3837 55.0674 23.8232 45.4883C22.3124 36.0752 28.1064 26.9443 37.287 24.3213C39.4452 23.707 40.4911 23.5908 43.081 23.6572C44.8573 23.707 45.7704 23.8066 46.9989 24.122Z" fill="#3D1D9A"/>
<path d="M12.5342 29.75C12.0693 30.0156 11.9531 30.2148 11.9531 30.8291C11.9531 31.2109 12.0693 31.4433 12.335 31.6094C12.5342 31.7256 14.2441 32.2236 16.1533 32.6885C19.8721 33.5849 20.1875 33.6015 20.5693 32.7715C20.752 32.3398 20.6025 31.7256 20.2373 31.4433C20.0381 31.2773 13.3311 29.5342 12.999 29.5508C12.916 29.5508 12.7168 29.6504 12.5342 29.75Z" fill="#3D1D9A"/>
<path d="M68.249 30.4473C65.2773 31.1943 64.8125 31.3603 64.5302 31.7422C64.248 32.124 64.2314 32.2568 64.3974 32.6719C64.7793 33.6015 65.0449 33.6015 68.83 32.6885C70.7392 32.2236 72.416 31.7754 72.582 31.6924C73.2461 31.3437 73.163 30.0654 72.4658 29.75C71.9013 29.4844 72.1503 29.4512 68.249 30.4473Z" fill="#3D1D9A"/>
<path d="M2.68936 41.7197C2.22451 42.2177 2.22451 42.8486 2.70596 43.2968C3.0878 43.6621 3.1376 43.6621 10.1767 43.6621C17.0497 43.6621 17.2821 43.6455 17.5976 43.33C18.0292 42.8984 18.0292 42.1015 17.5976 41.6699C17.2821 41.3545 17.0497 41.3379 10.1601 41.3379H3.03799L2.68936 41.7197Z" fill="#3D1D9A"/>
<path d="M67.4023 41.6699C67.2197 41.8525 67.0703 42.2177 67.0703 42.5C67.0703 42.7822 67.2197 43.1474 67.4023 43.33C67.7178 43.6455 67.9502 43.6621 74.8398 43.6621H81.9619L82.3105 43.2802C82.7754 42.7822 82.7754 42.1513 82.2939 41.7031C81.9121 41.3379 81.8623 41.3379 74.8232 41.3379C67.9502 41.3379 67.7178 41.3545 67.4023 41.6699Z" fill="#3D1D9A"/>
<path d="M15.9873 52.3613C14.0449 52.8427 12.3515 53.3408 12.2021 53.457C11.9365 53.6728 11.8701 54.5693 12.0859 54.8847C12.1523 54.9843 12.3847 55.167 12.5839 55.2666C12.916 55.4492 13.497 55.3496 16.4853 54.6191C18.4277 54.1377 20.1045 53.6728 20.2373 53.5732C20.8847 53.042 20.7519 51.996 19.9716 51.6474C19.7558 51.5478 19.5566 51.4648 19.54 51.4648C19.5234 51.4814 17.913 51.8798 15.9873 52.3613Z" fill="#3D1D9A"/>
<path d="M64.9785 51.664C64.248 51.9961 64.1318 53.0752 64.7627 53.5566C64.8955 53.6562 66.5723 54.1377 68.498 54.6025C71.5195 55.3496 72.0674 55.4492 72.3994 55.2666C72.9141 55.001 73.0469 54.8017 73.0469 54.2705C73.0469 53.4404 72.7646 53.3076 69.3115 52.4443C65.1777 51.415 65.3935 51.4648 64.9785 51.664Z" fill="#3D1D9A"/>
<path d="M21.9473 61.4756C19.0254 64.4307 18.8428 64.7295 19.6894 65.3936C19.9385 65.5928 20.2871 65.7422 20.4697 65.7422C20.6855 65.7422 21.7978 64.7627 23.5244 63.0527C25.8818 60.7119 26.2305 60.2969 26.2305 59.832C26.2305 59.2012 25.7822 58.7695 25.1348 58.7695C24.7197 58.7695 24.2217 59.2012 21.9473 61.4756Z" fill="#3D1D9A"/>
<path d="M59.1014 59.1016C58.371 59.832 58.5702 60.1641 61.4755 63.0527C63.202 64.7627 64.3143 65.7422 64.5302 65.7422C64.7128 65.7422 65.0614 65.5928 65.3104 65.3936C66.1571 64.7295 65.9745 64.4307 63.0526 61.4756C60.1639 58.5703 59.8319 58.3711 59.1014 59.1016Z" fill="#3D1D9A"/>
<path d="M31.9579 64.4141C31.7587 64.4805 31.5263 64.6465 31.4433 64.7627C31.3437 64.8955 30.8622 66.5723 30.3974 68.4981C29.6503 71.5195 29.5507 72.0674 29.7333 72.3994C29.999 72.9141 30.1982 73.0469 30.7294 73.0469C31.5761 73.0469 31.6923 72.7813 32.6386 69.0127C33.6015 65.1113 33.6015 64.8125 32.7548 64.4307C32.539 64.3311 32.3398 64.2481 32.3232 64.2647C32.3066 64.2647 32.1405 64.3311 31.9579 64.4141Z" fill="#3D1D9A"/>
<path d="M52.1952 64.4473C51.415 64.8125 51.4316 65.1611 52.2948 68.7637C52.7431 70.623 53.1913 72.2998 53.2743 72.499C53.623 73.2627 54.9511 73.1963 55.2665 72.416C55.4325 72.001 55.3495 71.4697 54.6024 68.4648C54.121 66.5225 53.623 64.8789 53.4735 64.7295C53.1083 64.3477 52.6103 64.248 52.1952 64.4473Z" fill="#3D1D9A"/>
<path d="M41.6699 67.4023C41.3545 67.7177 41.3379 67.9502 41.3379 74.8398V81.9619L41.7197 82.3105C42.2178 82.7754 42.8486 82.7754 43.2969 82.2939C43.6621 81.9121 43.6621 81.8623 43.6621 74.8232C43.6621 67.9502 43.6455 67.7177 43.3301 67.4023C43.1475 67.2197 42.7822 67.0703 42.5 67.0703C42.2178 67.0703 41.8525 67.2197 41.6699 67.4023Z" fill="#3D1D9A"/>
</svg>
