<svg width="80" height="80" viewBox="0 0 80 80" fill="none" xmlns="http://www.w3.org/2000/svg">
<path d="M37.0624 0.171875C36.3749 0.375 35.3749 1.40625 35.1718 2.14062C35.078 2.46875 34.9999 3.375 34.9999 4.15625V5.5625L26.1405 11.1094C21.2655 14.1562 17.0468 16.8281 16.7811 17.0625C16.0624 17.7031 15.578 18.9375 15.6561 19.9375C15.703 20.5469 17.4218 24.7656 23.1405 38.375L30.5468 56.0156V57.2812C30.5468 58.5312 30.5468 58.5469 29.3749 60.9219C28.7343 62.2344 28.1561 63.3281 28.1093 63.375C28.0624 63.4062 24.9686 62.4062 21.2343 61.1562C13.4686 58.5625 12.8436 58.4219 10.828 59.0312C5.93738 60.5312 4.49988 66.6406 8.21863 70.1562C8.68738 70.5938 9.43738 71.125 9.87488 71.3281C10.328 71.5312 15.328 73 20.9686 74.6094C31.1561 77.5156 31.2343 77.5469 31.3905 78C31.6561 78.7656 32.203 79.4062 32.8749 79.7031C33.4374 79.9531 33.9374 80 36.8749 80C41.0936 80 41.8905 79.875 46.8905 78.3906C49.078 77.7344 53.9843 76.2812 57.8124 75.1562C67.0155 72.4375 69.8436 71.5781 70.2343 71.375C71.078 70.9375 72.0936 70.0469 72.6561 69.25C75.2968 65.5781 73.5155 60.3594 69.1718 59.0312C67.1561 58.4219 66.5311 58.5625 58.7655 61.1562C55.0311 62.4062 51.9374 63.4062 51.8905 63.375C51.8436 63.3281 51.2655 62.2344 50.6249 60.9219C49.453 58.5469 49.453 58.5312 49.453 57.2812V56.0156L56.8749 38.3594C64.1405 21.0781 64.2968 20.6875 64.2968 19.6875C64.2811 18.5312 63.9061 17.625 63.1561 17C62.9061 16.7969 58.7186 14.1406 53.8593 11.0938L45.0311 5.57812L44.9686 3.84375C44.9218 2.34375 44.8749 2.03125 44.5468 1.51562C43.953 0.5625 43.1093 0.078125 41.9686 0.078125C41.3749 0.078125 40.828 0.171875 40.4999 0.34375C40.0155 0.59375 39.953 0.59375 39.328 0.3125C38.6249 -0.015625 37.8749 -0.0625 37.0624 0.171875ZM38.5624 2.6875C38.6874 2.8125 38.7499 3.67188 38.7499 5.5V8.10938L37.828 8.75C37.3124 9.09375 36.8593 9.375 36.8124 9.375C36.6874 9.375 35.9374 8.23438 35.9374 8.04688C35.9374 7.95312 36.1561 7.75 36.4218 7.59375C37.203 7.14062 37.4999 6.28125 37.4999 4.4375C37.4999 2.84375 37.6093 2.5 38.1249 2.5C38.2655 2.5 38.453 2.57812 38.5624 2.6875ZM42.3124 2.6875C42.4374 2.8125 42.4999 3.4375 42.4999 4.48438C42.4999 6.32812 42.7811 7.125 43.5936 7.60938C43.8436 7.75 44.0624 7.95312 44.0624 8.04688C44.0624 8.23438 43.3124 9.375 43.1874 9.375C43.1405 9.375 42.6874 9.07812 42.1718 8.73438L41.2499 8.07812V5.48438C41.2499 2.8125 41.3124 2.5 41.8749 2.5C42.0155 2.5 42.203 2.57812 42.3124 2.6875ZM34.1093 9.95312C34.3124 10.2812 34.5155 10.625 34.578 10.7344C34.6561 10.8438 32.8593 12.1719 29.6561 14.3906C23.9218 18.3281 23.3593 18.75 23.0468 19.375C22.578 20.2969 22.7186 20.8125 25.4686 27.9531C26.9374 31.75 28.2343 35.0625 28.3593 35.3125C28.703 35.9844 29.6718 36.7031 30.6093 36.9688C31.3749 37.2031 31.5624 37.2031 32.6874 36.9688L33.9374 36.7188L34.4374 37.1094C35.6718 38.0469 38.0468 38.75 39.9999 38.75C41.953 38.75 44.328 38.0469 45.5624 37.1094C46.078 36.7188 46.078 36.7188 47.203 36.9531C48.1093 37.1406 48.5155 37.1562 49.1561 37.0312C50.1093 36.8281 51.0624 36.1875 51.5311 35.4375C51.703 35.1562 53.0468 31.7969 54.5155 27.9844C57.2811 20.8125 57.4218 20.2969 56.953 19.375C56.6405 18.7656 56.1093 18.3594 50.3593 14.375L45.3124 10.8906L45.6561 10.3281C45.828 10.0156 46.078 9.67188 46.1718 9.5625C46.328 9.39062 47.703 10.1875 53.6874 13.9062C57.7186 16.4219 61.203 18.6719 61.453 18.9219C61.6874 19.1719 61.8749 19.5156 61.8749 19.6719C61.8749 19.8438 58.578 27.8438 54.5468 37.4531C50.5311 47.0625 47.1561 55.2969 47.0468 55.75C46.953 56.2031 46.8749 56.9531 46.8749 57.4219C46.8749 58.0781 46.8124 58.2812 46.6093 58.3438C46.0468 58.5156 41.8593 58.75 39.4218 58.75H36.8905L36.578 59.1562C36.1249 59.7344 36.1718 60.25 36.703 60.7969L37.1561 61.25H39.6405C41.9061 61.25 44.1405 61.125 46.7186 60.8594L47.7343 60.75L48.9374 63.1875L50.1405 65.6094L46.9218 67.2969C45.1405 68.2188 43.5624 69.0469 43.4218 69.125C43.2186 69.2188 41.4374 68.5938 36.8124 66.7969L30.4843 64.3281L31.3749 62.5469L32.2655 60.75L33.0936 60.8438C34.2811 60.9844 34.9843 60.5469 34.9999 59.6406C34.9999 59.125 34.3905 58.4375 33.9218 58.4375C33.2499 58.4375 33.1249 58.2812 33.1249 57.4062C33.1249 56.9531 33.0468 56.2031 32.953 55.75C32.8436 55.2969 29.4686 47.0625 25.453 37.4531C21.4218 27.8594 18.1249 19.8594 18.1249 19.7031C18.1249 19.5469 18.2499 19.25 18.4061 19.0625C18.6561 18.75 33.3436 9.42188 33.6249 9.39062C33.6874 9.375 33.9061 9.64062 34.1093 9.95312ZM40.7968 10.8125L41.4999 11.3281H39.9999H38.4843L39.203 10.8281C39.5936 10.5469 39.953 10.3281 39.9999 10.3281C40.0468 10.3125 40.4061 10.5469 40.7968 10.8125ZM42.1405 14.2812C42.5936 14.5 43.2186 14.9375 43.5311 15.25C44.0936 15.8125 44.8436 17.2031 44.8436 17.6562C44.828 18.0312 44.4061 17.4062 43.8905 16.2969C43.1249 14.625 42.4843 14.5625 41.0311 16C39.6093 17.4062 37.0468 18.5938 35.4218 18.5938C34.9843 18.5938 34.9686 18.5781 35.078 17.9219C35.328 16.4375 36.4686 14.9062 37.8124 14.2656C39.1718 13.625 40.8593 13.625 42.1405 14.2812ZM33.2968 15.4531C32.5936 16.8281 32.4999 17.6094 32.4999 22.5C32.4999 27.6094 32.578 28.2031 33.4686 29.875C33.7655 30.4375 34.3593 31.1719 34.9686 31.7344C35.953 32.625 35.9686 32.6562 35.7811 33.125C35.6718 33.375 35.4999 33.6562 35.3905 33.75C35.2811 33.8438 34.3749 34.0938 33.3749 34.2969C31.4218 34.7188 30.9843 34.6719 30.5624 34.0312C30.4374 33.8281 29.203 30.7188 27.828 27.125C25.7811 21.8125 25.3436 20.5312 25.4999 20.3594C25.7811 20.0938 33.4999 14.7344 33.5624 14.7812C33.5936 14.7969 33.4686 15.0938 33.2968 15.4531ZM54.6718 20.4062C54.7499 20.4844 49.7186 33.5938 49.4374 34.0312C49.0155 34.6719 48.578 34.7188 46.6249 34.2969C45.6249 34.0938 44.7186 33.8438 44.6093 33.75C44.4999 33.6562 44.328 33.375 44.2186 33.125C44.0311 32.6875 44.0624 32.6406 45.0624 31.7188C46.203 30.6406 47.0468 29.1875 47.3436 27.7344C47.453 27.1719 47.4999 25.2344 47.4686 22L47.4218 17.1094L46.9843 16.0938C46.7343 15.5312 46.4999 14.9844 46.453 14.875C46.3905 14.7344 53.7186 19.6719 54.6718 20.4062ZM43.3749 19.9375C43.7343 20.2969 44.2499 20.6719 44.5155 20.7969L45.0155 21.0156L44.9686 24.2969L44.9218 27.5781L44.3905 28.5625C43.7968 29.6562 43.2968 30.1406 42.1249 30.75C41.453 31.0938 41.1249 31.1562 39.9999 31.1562C38.8749 31.1562 38.5468 31.0938 37.8749 30.75C36.703 30.1406 36.203 29.6562 35.6093 28.5625L35.078 27.5781L35.0311 24.4219C34.9843 21.875 35.0155 21.2344 35.1874 21.1875C35.2968 21.1562 35.9061 21.0469 36.5311 20.9531C38.0311 20.7188 39.8593 20 41.1093 19.1562L42.1093 18.4688L42.4061 18.8906C42.578 19.1094 43.0155 19.5781 43.3749 19.9375ZM41.9686 34.25C42.1093 34.5625 42.3905 34.9844 42.5936 35.1719C42.7968 35.3594 42.9686 35.5781 42.9686 35.625C42.9686 35.8906 41.3749 36.1719 39.9999 36.1719C38.6249 36.1719 37.0311 35.8906 37.0311 35.625C37.0311 35.5781 37.203 35.3594 37.4061 35.1719C37.6093 34.9844 37.8905 34.5625 38.0311 34.25L38.2968 33.6719H39.9999H41.703L41.9686 34.25ZM21.1718 63.8125C25.3905 65.2188 31.2186 67.2969 34.1405 68.4375C37.0624 69.5781 39.6249 70.5625 39.8436 70.6562C40.1874 70.7812 40.0155 70.9062 37.9686 71.9844C36.7186 72.625 34.8593 73.6094 33.8436 74.1562L31.9843 75.1562L21.578 72.1719C15.078 70.3281 10.9218 69.0625 10.4999 68.8125C9.28113 68.0938 8.48426 66.4219 8.64051 64.9062C8.79676 63.4375 9.70301 62.2031 11.0936 61.5781C12.4999 60.9375 12.8124 61.0156 21.1718 63.8125ZM68.9061 61.5781C69.7655 61.9688 70.5468 62.6875 70.9843 63.5156C71.2499 64 71.328 64.4219 71.328 65.3906C71.328 66.4688 71.2655 66.7344 70.9061 67.3594C70.3593 68.2812 69.5936 68.9531 68.7343 69.2812C67.2811 69.7969 44.203 76.5625 44.078 76.5C43.828 76.3438 42.2968 72.6406 42.4374 72.5156C42.5155 72.4375 46.3124 70.4219 50.8593 68.0469L59.1405 63.7031L62.7343 62.4844C66.7655 61.125 67.6249 61 68.9061 61.5781ZM40.8593 75.5938C41.2655 76.4844 41.5468 77.2656 41.4843 77.3125C41.4218 77.375 39.6874 77.4219 37.6093 77.4219C34.3905 77.4219 33.828 77.3906 33.828 77.1875C33.828 76.9375 39.8593 73.7031 40.0311 73.875C40.0936 73.9375 40.4686 74.7031 40.8593 75.5938Z" fill="#3D1D9A"/>
</svg>
