<svg width="29" height="46" viewBox="0 0 29 46" fill="none" xmlns="http://www.w3.org/2000/svg">
<path d="M7.095 36.35C6.395 36.35 5.835 36.1633 5.415 35.79C4.995 35.4167 4.785 34.9033 4.785 34.25V21.055C4.785 17.9517 5.75333 15.525 7.69 13.775C9.62667 12.025 12.31 11.15 15.74 11.15C19.17 11.15 21.8533 12.025 23.79 13.775C25.7267 15.525 26.695 17.9517 26.695 21.055V34.25C26.695 34.9033 26.485 35.4167 26.065 35.79C25.645 36.1633 25.085 36.35 24.385 36.35C23.685 36.35 23.1133 36.1633 22.67 35.79C22.25 35.3933 22.04 34.88 22.04 34.25V20.95C22.04 18.9667 21.5033 17.45 20.43 16.4C19.3567 15.35 17.7933 14.825 15.74 14.825C13.6867 14.825 12.1233 15.35 11.05 16.4C9.97667 17.45 9.44 18.9667 9.44 20.95V34.25C9.44 34.88 9.21833 35.3933 8.775 35.79C8.355 36.1633 7.795 36.35 7.095 36.35Z" fill="#F1D7C7"/>
<ellipse cx="5.31023" cy="35.8662" rx="4.5" ry="2.8258" transform="rotate(-34.1909 5.31023 35.8662)" fill="#F1D7C7"/>
<path d="M26.3885 33.6803C27.1327 35.1606 25.936 37.2656 23.7156 38.382C21.4951 39.4983 19.0918 39.2032 18.3475 37.7229C17.6033 36.2426 18.8 34.1376 21.0205 33.0213C23.2409 31.905 25.6443 32.2 26.3885 33.6803Z" fill="#F1D7C7"/>
</svg>
