<svg width="231" height="75" viewBox="0 0 231 75" fill="none" xmlns="http://www.w3.org/2000/svg">
<rect width="231" height="75" rx="10" fill="url(#paint0_linear_361_6)"/>
<path d="M56.64 52C54.6133 52 53.04 51.4667 51.92 50.4C50.8 49.3333 50.24 47.84 50.24 45.92V29.92C50.24 28.0533 50.7733 26.6 51.84 25.56C52.9333 24.52 54.44 24 56.36 24H68.8C69.6 24 70.2133 24.1867 70.64 24.56C71.0667 24.9067 71.28 25.4133 71.28 26.08C71.28 26.72 71.0533 27.2267 70.6 27.6C70.1733 27.9467 69.5733 28.12 68.8 28.12H57.28C56.7467 28.12 56.32 28.2933 56 28.64C55.7067 28.9867 55.56 29.4667 55.56 30.08V35.64H65.76C66.56 35.64 67.1733 35.8267 67.6 36.2C68.0267 36.5467 68.24 37.0533 68.24 37.72C68.24 38.36 68.0133 38.8667 67.56 39.24C67.1333 39.5867 66.5333 39.76 65.76 39.76H55.56V45.92C55.56 46.5333 55.7067 47.0133 56 47.36C56.32 47.7067 56.7467 47.88 57.28 47.88H69.68C70.48 47.88 71.0933 48.0667 71.52 48.44C71.9467 48.7867 72.16 49.2933 72.16 49.96C72.16 50.6 71.9333 51.1067 71.48 51.48C71.0533 51.8267 70.4533 52 69.68 52H56.64ZM86.6556 52C84.629 52 83.0556 51.4667 81.9356 50.4C80.8156 49.3333 80.2556 47.84 80.2556 45.92V26C80.2556 25.2533 80.4956 24.6667 80.9756 24.24C81.4556 23.8133 82.0956 23.6 82.8956 23.6C83.6956 23.6 84.3356 23.8267 84.8156 24.28C85.3223 24.7067 85.5756 25.28 85.5756 26V45.92C85.5756 46.5333 85.7223 47.0133 86.0156 47.36C86.3356 47.7067 86.7623 47.88 87.2956 47.88H100.096C100.896 47.88 101.509 48.0667 101.936 48.44C102.362 48.7867 102.576 49.2933 102.576 49.96C102.576 50.6 102.349 51.1067 101.896 51.48C101.469 51.8267 100.869 52 100.096 52H86.6556ZM113.682 52.4C112.882 52.4 112.242 52.1867 111.762 51.76C111.282 51.3333 111.042 50.7467 111.042 50V26C111.042 25.2533 111.282 24.6667 111.762 24.24C112.242 23.8133 112.882 23.6 113.682 23.6C114.455 23.6 115.095 23.8133 115.602 24.24C116.108 24.6667 116.362 25.2533 116.362 26V50C116.362 50.7467 116.108 51.3333 115.602 51.76C115.095 52.1867 114.455 52.4 113.682 52.4ZM128.469 52.4C127.669 52.4 127.029 52.1867 126.549 51.76C126.069 51.3333 125.829 50.7467 125.829 50V34.92C125.829 31.3733 126.936 28.6 129.149 26.6C131.362 24.6 134.429 23.6 138.349 23.6C142.269 23.6 145.336 24.6 147.549 26.6C149.762 28.6 150.869 31.3733 150.869 34.92V50C150.869 50.7467 150.629 51.3333 150.149 51.76C149.669 52.1867 149.029 52.4 148.229 52.4C147.429 52.4 146.776 52.1867 146.269 51.76C145.789 51.3067 145.549 50.72 145.549 50V34.8C145.549 32.5333 144.936 30.8 143.709 29.6C142.482 28.4 140.696 27.8 138.349 27.8C136.002 27.8 134.216 28.4 132.989 29.6C131.762 30.8 131.149 32.5333 131.149 34.8V50C131.149 50.72 130.896 51.3067 130.389 51.76C129.909 52.1867 129.269 52.4 128.469 52.4ZM165.531 52C163.504 52 161.931 51.4667 160.811 50.4C159.691 49.3333 159.131 47.84 159.131 45.92V29.92C159.131 28.0533 159.664 26.6 160.731 25.56C161.824 24.52 163.331 24 165.251 24H177.691C178.491 24 179.104 24.1867 179.531 24.56C179.957 24.9067 180.171 25.4133 180.171 26.08C180.171 26.72 179.944 27.2267 179.491 27.6C179.064 27.9467 178.464 28.12 177.691 28.12H166.171C165.637 28.12 165.211 28.2933 164.891 28.64C164.597 28.9867 164.451 29.4667 164.451 30.08V35.64H174.651C175.451 35.64 176.064 35.8267 176.491 36.2C176.917 36.5467 177.131 37.0533 177.131 37.72C177.131 38.36 176.904 38.8667 176.451 39.24C176.024 39.5867 175.424 39.76 174.651 39.76H164.451V45.92C164.451 46.5333 164.597 47.0133 164.891 47.36C165.211 47.7067 165.637 47.88 166.171 47.88H178.571C179.371 47.88 179.984 48.0667 180.411 48.44C180.837 48.7867 181.051 49.2933 181.051 49.96C181.051 50.6 180.824 51.1067 180.371 51.48C179.944 51.8267 179.344 52 178.571 52H165.531Z" fill="white"/>
<ellipse cx="127.313" cy="50.7685" rx="4.5" ry="2.8258" transform="rotate(-33.1909 127.313 50.7685)" fill="white"/>
<ellipse cx="146.368" cy="51.7016" rx="4.5" ry="3" transform="rotate(-32.6909 146.368 51.7016)" fill="white"/>
<defs>
<linearGradient id="paint0_linear_361_6" x1="115.5" y1="0" x2="115.5" y2="75" gradientUnits="userSpaceOnUse">
<stop stop-color="#DAA0FB"/>
<stop offset="1" stop-color="#FFD9A9"/>
</linearGradient>
</defs>
</svg>
