<svg width="29" height="29" viewBox="0 0 29 29" fill="none" xmlns="http://www.w3.org/2000/svg">
<path d="M25.3601 28.9988H3.59948C3.1246 29.0092 2.6526 28.9222 2.21232 28.7433C1.77204 28.5643 1.37273 28.2971 1.0388 27.958C0.700011 27.6234 0.4332 27.2227 0.254879 26.7805C0.0765574 26.3383 -0.00948123 25.8641 0.00208709 25.3871V3.62367C-0.0143441 3.14733 0.0663837 2.67265 0.239313 2.22877C0.412243 1.78489 0.673724 1.38118 1.0077 1.04244C1.34525 0.69942 1.74962 0.429953 2.19555 0.250872C2.64149 0.0717909 3.11942 -0.0130571 3.59948 0.00162687H25.3705C25.8505 -0.012433 26.3282 0.0727017 26.7741 0.251747C27.2199 0.430792 27.6243 0.699925 27.9623 1.04244C28.2993 1.37612 28.565 1.77525 28.7432 2.21546C28.9215 2.65568 29.0085 3.12775 28.999 3.60285V25.3663C29.0105 25.8432 28.9245 26.3175 28.7462 26.7597C28.5679 27.2019 28.301 27.6026 27.9623 27.9371C27.6249 28.2847 27.2196 28.5585 26.7718 28.7412C26.324 28.9239 25.8433 29.0116 25.3601 28.9988V28.9988ZM19.7826 22.0149C19.9887 22.0334 20.1942 21.9728 20.3577 21.8454C20.5212 21.7179 20.6306 21.5331 20.6638 21.328L23.5355 7.53714C23.5437 7.44825 23.5311 7.35867 23.4987 7.27553C23.4663 7.1924 23.415 7.11803 23.3489 7.05836C23.2338 6.94874 23.0824 6.88572 22.9238 6.88142C22.8685 6.88142 17.1562 9.00122 5.78695 13.2408C5.65864 13.2819 5.54744 13.3644 5.47058 13.4754C5.39373 13.5864 5.35552 13.7198 5.3619 13.8549C5.36913 13.981 5.41627 14.1015 5.49645 14.1988C5.57663 14.2962 5.68567 14.3653 5.80768 14.3961L9.95454 15.6867L11.6236 20.7139C11.6673 20.8509 11.7552 20.9693 11.8735 21.0504C11.9919 21.1315 12.1338 21.1706 12.2768 21.1614C12.3542 21.1612 12.4307 21.1454 12.5019 21.115C12.5731 21.0846 12.6376 21.0402 12.6915 20.9845L15.0448 18.7363L19.285 21.8588C19.4327 21.9572 19.6053 22.0114 19.7826 22.0149V22.0149ZM12.2042 19.4753L10.9498 15.312C16.9765 11.461 20.0107 9.53551 20.0521 9.53551C20.2076 9.53551 20.2906 9.53551 20.2906 9.70204C20.2941 9.72271 20.2941 9.74382 20.2906 9.76449C20.2906 9.76449 17.6884 12.1584 12.4945 16.842L12.2042 19.4753Z" fill="black"/>
</svg>
